<svg width="164" height="199" viewBox="0 0 164 199" fill="none" xmlns="http://www.w3.org/2000/svg">
<path d="M22.3256 65.3597H64.533V57.2688H22.3256V65.3597ZM22.3256 47.8295H87.0525V39.7386H22.3256V47.8295ZM22.3256 30.2993H87.0525V22.2084H22.3256V30.2993ZM0.75 108.376V8.58879C0.75 6.52112 1.55909 4.65573 3.17726 2.99261C4.79543 1.32949 6.6833 0.497925 8.84086 0.497925H100.537C102.605 0.497925 104.47 1.32949 106.133 2.99261C107.797 4.65573 108.628 6.52112 108.628 8.58879V78.7096C108.628 80.7772 107.797 82.6426 106.133 84.3058C104.47 85.9689 102.605 86.8004 100.537 86.8004H22.3256L0.75 108.376ZM8.84086 88.8232L18.9544 78.7096H100.537V8.58879H8.84086V88.8232Z" fill="#12A594"/>
<path d="M141.674 155.486H99.467V147.395H141.674V155.486ZM141.674 137.956H76.9475V129.865H141.674V137.956ZM141.674 120.425H76.9475V112.334H141.674V120.425ZM163.25 198.502V98.7148C163.25 96.6472 162.441 94.7818 160.823 93.1186C159.205 91.4555 157.317 90.624 155.159 90.624H63.4627C61.3951 90.624 59.5297 91.4555 57.8665 93.1186C56.2034 94.7818 55.3718 96.6472 55.3718 98.7148V168.836C55.3718 170.903 56.2034 172.769 57.8665 174.432C59.5297 176.095 61.3951 176.926 63.4627 176.926H141.674L163.25 198.502ZM155.159 178.949L145.046 168.836H63.4627V98.7148H155.159V178.949Z" fill="#12A594"/>
</svg>
